<svg 
 xmlns="http://www.w3.org/2000/svg"
 xmlns:xlink="http://www.w3.org/1999/xlink"
 width="169px" height="158px">
<path fill-rule="evenodd"  stroke="rgb(255, 255, 255)" stroke-width="2px" stroke-linecap="butt" stroke-linejoin="miter" fill="none"
 d="M82.068,1.249 C109.481,3.126 135.325,14.151 149.830,28.433 C164.952,42.961 168.735,60.748 166.300,81.825 C163.556,103.092 154.841,122.460 140.278,134.078 C125.923,146.233 105.720,150.639 84.817,154.383 C44.405,163.513 5.848,132.898 1.102,88.314 C-1.091,45.526 27.748,-2.964 82.068,1.249 L82.068,1.249 Z"/>
<path fill-rule="evenodd"  fill="rgb(255, 255, 255)"
d="M82.615,11.621 C106.260,13.242 128.553,22.764 141.064,35.101 C154.109,47.648 157.371,63.011 155.271,81.216 C152.904,99.584 145.387,116.312 132.825,126.347 C120.443,136.846 103.016,140.651 84.986,143.885 C50.128,151.770 16.869,125.328 12.775,86.820 C10.883,49.864 35.760,7.982 82.615,11.621 L82.615,11.621 Z"/>
</svg>